<?xml version="1.0" encoding="utf-8"?>
<!-- Generator: Adobe Illustrator 16.0.0, SVG Export Plug-In . SVG Version: 6.00 Build 0)  -->
<!DOCTYPE svg PUBLIC "-//W3C//DTD SVG 1.1//EN" "http://www.w3.org/Graphics/SVG/1.1/DTD/svg11.dtd">
<svg version="1.1" id="Layer_1" xmlns="http://www.w3.org/2000/svg" xmlns:xlink="http://www.w3.org/1999/xlink" x="0px" y="0px"
	 width="595.28px" height="2081.583px" viewBox="0 0 595.28 2081.583" enable-background="new 0 0 595.28 2081.583"
	 xml:space="preserve">
<path fill="#0000AA" d="M318,2033.436c0,0-52,2-62,0s-10-2-10-2s16-19,15-30s5-63,6-70s3-60,3-60h-4c0,0-10-6-15-7s-5-1-5-1l-9,5
	c0,0,7,14,0,17s-7,3-7,3s-7-26-7-25c0,0-1,2.943-7-0.028s-6-2.972-6-2.972s-1,9-14,6s-13-3-13-3l-13-11c0,0-13,0-16-7s-3-7-3-7v-8
	c0,0-12,7-13,0s0-12,0-12s-6-3-6-7s0-4,0-4v-8c0,0-3-6,0-13s5-14,5-14s-11-14.5-13.5-18.5s-4.5-5-3-11.5s1.5-11,1.5-11s-1-11,2-13
	s3-2,3-2s-10,5.5-11.5,0s-4-12-4-12s0-4.5,0-11.5s0-10.5,0-10.5s2-1.5,0-8s-2-6.5-2-6.5s3,1.5,6-4.5s3-6,3-6s-5,0-6-7.5s0-13,0-13
	s-4.5,4-6,0s-5.5-15-5.5-15c-1.5-6,0-13.5,0-13.5s-0.333-11-0.667-14.5s2.667,0,2.667,0s10.5,1.389,13.5-1.556s7.5-4.444,7.5-4.444
	s-6.5-0.5-7-5.5s3,0,3,0l4.5-2.223c0,0-15.5-12.777-14-19.277s3.5-9.5,3.5-9.5l4.5-3c0,0-4.5,2,0.5,5.5s5,3.5,5,3.5s-2.5-6.5,0.5-9
	s4-5,4-5h5c0,0-3-2-6.5-5.5s-1-3.5-3.5-3.5s-10,2.5-10,2.5s-9,3.5-5-6.5s6.5-13.5,6.5-13.5l8,5c0,0,10,4.5,9-1s-1-5.5-1-5.5
	s-13.5-7.5-12-15.5s1.5-8,1.5-8s3,0.5,6.5,0s3.5-0.5,3.5-0.5s1.5-4.5,2.5-8s1-3.5,1-3.5s-3.5-4.5-5.5-3s-2,1.5-2,1.5l-10,5
	c0,0-3.5,0.389-2.5-6.806s1-9.694,1-9.694l-4-5.5c0,0-5-6-4.5-10.5s0.5-4.5,0.5-4.5l8.5-9.5c0,0-1-5-1-9.5s-5-9.5-2.5-13.5
	s2.5-4,2.5-4s-4.5-8-3.5-11.5s3.5-5.5,3.5-5.5s-1.5-6.5-1-9.5s0.5-3,0.5-3s-4.5-3-4-11.5s0.5-8.5,0.5-8.5s1.5-7.5,1-9.5
	s-10.885-1-11.192-8s-0.308-7-0.308-7l4-5.5l4,7.5l2-13.5l0.5-8c0,0-6.5-1.5-4-9s6-14.5,6-14.5s3.5-1,5,0s5.5-8.5,10.5-7.5s5,1,5,1
	s-5.5-6.5-7.5-6.5s-8-1-10.5-6.5s-2.5-9-2.5-9s-3-7,0-13s5-9.5,5-9.5l7.5-7.5c0,0-6-16.5-5-21s1-8,1-8s-4.5-25.5-4.5-32.5
	s0-10.5,0-10.5s-1.5-8.5,0-13.5s5-9,5-9s-0.5-8,2.5-10.5s3-2.5,3-2.5l4,6c0,0,2.5-16,3.5-24s2-11,2-11s-20,2.5-16.5-8.5
	s3.5-11,3.5-11v-13.5c0,0,4-1.5,11,0s15,11.5,25.5,7.5s10.5-4,10.5-4s0-8.5-4-15s-5-7.5-3.5-18.5s4-20.391,2.5-24.445
	s-1.5-4.055-1.5-4.055l0,0c0,0-10,8.5-8.5-2.5s1.5-11,1.5-11s-3.5-8.5,1.5-12s7-7.5,7-7.5s11,1.5,12,0s1-1.5,1-1.5s-1.5-7.5-5.5-6
	s-4,1.5-4,1.5s-11.5-3-14.5-10s-3-10-3-10l5-6.5l-5.5-4c0,0-1.5,0,0-7s5.5-9.5,5.5-9.5s-3-11.5,2-13.5s2-2.5,5-2s6.5-0.18,6.5-0.18
	l3-4.32c0,0-7.5,1-11-4.5s-7.5-11-7.5-11s-4-11,0.5-13s4.5-2,4.5-2s2-3.5,3-9s1-5.5,1-5.5s-2,3-2-5s0-8,0-8s-2-2-2-6s0-1,0-4
	s0-6,0-6l7.5-17c0,0-3.5-13-2-15.5s-9-2-6.5-7s3-12.5,3-12.5s2.5-10.5,5.5-10.5s3,0,3,0s-7-6.5-6.5-19s0.5-12.5,0.5-12.5
	s-0.5-13,3-13s3.5,0,3.5,0s-2-11.5-3.5-16s-2.5-8-2.5-8s4-2.5,4-5.5s0-3,0-3s-10-12.5-8-18s3.5-8,3.5-8l12.5-4l7.5-11l1.5,8
	c0,0,4.5,1,2.5-8s-3.5-14-3.5-14s-11.5-13.5-12.5-21.5s-1-8-1-8s-7.5-16.5-3-21.5s4.5-5,4.5-5s-3-5-0.5-12s10-7.5,10-7.5l3-2.5
	c0,0-1,0-4-8s-3-8-3-8s1.5-10,5-14.5s3.5-4.5,3.5-4.5h5l-1-5c0,0-5.5-3-7-6s-2-5.5-2-5.5l6-6l-5-9h10l4.5-6c0,0-6,2-3.5-3.5
	s2.5-5.5,2.5-5.5s-5.5-15-3-17.5s2.5-12,2.5-12l4-10h7c0,0-2.5-10-0.5-11s3-3.5,3-3.5l-3-4.5c0,0-6.5-7-7-11s-5-13-5-16
	s-2.5-4-0.5-10.5s7.5-13.5,9.5-14.5s8,0,8,0s1.5-15,4-18s2.5-3,2.5-3s-10-16-6-26s4-10,4-10s-5.5-4-2.5-10s6-13.5,6-13.5l6-4
	c0,0-4-8.5-4-10s-2-12.5,0.5-14s2.5-4.5,2.5-4.5s-4.5-11-1-11.5s3.5-0.5,3.5-0.5s-0.5-13,5.5-15.5s6-2.5,6-2.5s-4-30-4-31.5
	s-2.5-5-2.5-5s7-11,9.5-14s19.5,0,19.5,0l-3-6h-3c0,0,0-10.5-2.5-19s-7.5-16.5-7.5-16.5s5-21,8-30s7.5-18.5,9-19s7-16.5,11.5-17
	s15.5,0,15.5,0l3.5,3.5l5.5,8.5v8c0,0,3.5-9.5,9.5-1.5s6,8,6,8s12.5,15,10.5,31.5s-2,20.5-2,20.5s-4.5,20.5-7.5,22s-3,1.5-3,1.5
	s23.5,14.5,23.5,29.5s-10.5,21.5-10.5,21.5s8,15,5.5,25c0,0,13,1,13,7.5s-4.5,15.5-4.5,15.5s5,19,4.5,22.5s-6,7.5-7.5,11
	s-1.5,3.5-1.5,3.5l-0.5,4.5c0,0,2,20-0.5,20.5s-6,8-6,8l1.5,10.5c0,0,9-3,11.5-1.5s3.035-2.5,3.035-2.5v-8.5
	c0,0,14.965-2,16.465,3.5s3,35.5,3,43s-6,4,0,14.5s6,29.5,6,31.5s0,18,0,18s5,3,3.5,9.5s-1.5,6.5-1.5,6.5l-2.5,17
	c0,0,7.5-1.5,6.5,6.5s-1,8-1,8s2.684,1.5,1.092,4.5s0.505,5,0.505,5s0.903-8.5,4.403-7s6.5,5,6.5,5l-5.5,12.5l5.5,0.5
	c0,0,4.5,11,0,16s-4.5,5-4.5,5l-3-7l-3,5c0,0,7.5,10,1.5,22.5s-6,12.5-6,12.5s10.5,1,12.5-1.5s2-2.5,2-2.5s5,5.5,2.5,11
	s-5,12.5-5.5,14s4.5,9.5,3.5,18s-3.5,12-3.5,12s-6.5,0.5-6.5,2.5s0,5,0,7.5s12.7,0,12.7,0s5.3,2.5,4.3,11s-12,11-12,11l1,4.5
	c0,0,6.5,3,6.5,7s-1.5,7.5-1.5,7.5l-10,1l5,5.5c0,0,11.252-4.5,11.126,0s1.374,23.5-4.126,29s-5.5,5.5-5.5,5.5s14.945,3.5,9.723,20
	s-8.723,19.5-8.723,19.5s-7.5,8.5-7.5,10s-1.5,4.5-1.5,4.5s4,2,12.5,10.5s7.16,14.5,6.33,16s-0.83,1.5-0.83,1.5l-4.5,4
	c0,0,8.395,6.5,5.947,11.5s-9.447,10-9.447,10l-7,8c0,0,14.789,12.5,16.895,21.5s7.605,25.5,5.605,34s-2,29-5.5,30.5s3.5,1.5-1,9.5
	s-4.5,8-4.5,8s13.5,1,8.5,12.5s-10,13.5-10,13.5s18,7.5,10,10.5s-8,3-8,3l-7.5-8l-5.5,2c0,0,5.5,10,2.5,18.5s-3,8.5-3,8.5
	s17.361-3,24.431-5s20.569-11,19.069-6s-3,8-3,8s15.5-1,14,5.5s-6,11-6,11l-3.5,3c0,0,4.5,7,1,9.5s-7,2.5-7,2.5l-4,1c0,0,5,7.5,0,12
	s-5,4.5-5,4.5l-3.5-0.5l1,8.5c0,0,10,2.666,6.5,8.583s-3.5,5.917-3.5,5.917s-1.5,7.5-1.5,13s0,5.5,0,5.5l-5.5,2.5
	c0,0-1.5,5.5-4,11.5c0,0,4,3.5,8,11.5s4,8,4,8l-1.5,6.5c0,0,17-9.5,20.5-5s1.205,11,4.103,16s2.397,13-2.603,19s-5,6-5,6
	s1.5,4.5-3.5,8.5s-5,4-5,4s1.5,10.5-1,11.5s-5,1-5,1s-1.5,6.5-5.5,10s-4,3.5-4,3.5s9-3.5,15.5,3s6.5,6.5,6.5,6.5s-4,13.5-4.5,17.5
	s-0.5,4-0.5,4s-5.5-3-7-3s-13,7.5-10,12.5s3,5,3,5s0-4.5,10,1.5s13.5,8.5,13.5,8.5s-8.5,8-13.5,7.5s-5-0.5-5-0.5l-5.5,8l3,6
	c0,0,6-3,7-1s1,2,1,2l-6.5,6l3,7c0,0,5,3.5,4,7.5s-5-1-5-1l0.5,7c0,0,5,6,5,10s-2.5,5-2.5,5l1.5,9c0,0-5.5-3-6,3s-0.5,6-0.5,6l-4,4
	c0,0,13,5.5,15,8s2,2.5,2,2.5s6.5-7,8.5-1.5s4.878,7.5,4.878,7.5s-0.122,7.5,0,10s-10.378-1-13.378,0s-3,1-3,1l-3,8.5c0,0,3.5,6,0,9
	s-3.5,3-3.5,3l-2.5-0.5c0,0-4.5,17.5-4.5,20s0,2.5,0,2.5l-3,2.5c0,0,5.5,12,6.5,17s1,5,1,5s-2,4.5-3.5,4.5s-1.5,0-1.5,0
	s2.5,10,4,13.5s8.5-3.5,11,2.5s2,10.5,2,10.5l-2,4.5c0,0,10,0,6,7s-4,7-4,7l-8,6.5l3.5,17c0,0,10.5,7.5,5.5,16s-5,8.5-5,8.5l-3.5,10
	c0,0,0.5,13-3,17s-3.5,4-3.5,4s1.5,11-3,11s-4.5,0-4.5,0l0,0c0,0-1,6.5-3,12c0,0,14,5,12,11s-2,6-2,6l-7,2.5l5.5,8.5l0.5,6.5
	c0,0,15.5-6,19-0.5s3,8,2.5,9.5s4.5,2.5,0,9s-4.5,6.5-4.5,6.5h-5c0,0-1.5,6-5.5,6s-4,0-4,0s16-1.5,23.5,2.5s9.5,10,10,12
	s8.5,3.5,0,6.5s-11,3-11,3s2.5,2.5,0.5,8.5s-7,5.5-7,5.5l1,10l3.5,8.5c0,0,8.5,9,5,13.5s-3.5,4.5-3.5,4.5s3,5,0.5,8.5s-8,10-8,10
	l-6,9c0,0-3,3-4.5,5s2,1.5,3.5,5.5s22.5,1,19.5,7s-3,6-3,6l-15,2c0,0-8.5,3.5-8.5,5s1,8.5-2.5,11.5s-3.5,3-3.5,3l-5.5,6.5
	c0,0,4,5,2.5,9.5s-1.5,4.5-1.5,4.5l-7.5,11l-4,3.5l-4.5,6.5c0,0,2,9.5-1.5,13s-3.5,3.5-3.5,3.5l-6.5,6.5l-5,3.5l-5,3
	c0,0,0.5,7-2.5,7s-3,0-3,0s2,4.5-0.5,6.5s-2.5,2-2.5,2l-14,2l-10.5,6l-8-6c0,0,0.5,82.5,0.5,90.5s1,14.5,1.5,21.5s0.5,7,0.5,7
	s0,15.5,1.5,22s6,15.5,6,15.5L318,2033.436z"/>
</svg>
